Coordinates
version=1
nRows=24
nColumns=24
inDegrees=yes

Units are S.I. units (second, meters, Newtons, ...)
Angles are in degrees.

endheader
time	pelvis_tilt	pelvis_list	pelvis_rotation	pelvis_tx	pelvis_ty	pelvis_tz	hip_flexion_r	hip_adduction_r	hip_rotation_r	knee_angle_r	ankle_angle_r	subtalar_angle_r	mtp_angle_r	hip_flexion_l	hip_adduction_l	hip_rotation_l	knee_angle_l	ankle_angle_l	subtalar_angle_l	mtp_angle_l	lumbar_extension	lumbar_bending	lumbar_rotation
      0.88516667	     -3.21978318	     -4.98695052	      3.61484874	     -0.39897767	      0.90225985	      0.36204916	     16.16557235	     10.81743114	     -3.94096996	    -22.55209913	     10.42416175	      0.43954618	      3.90670011	     14.45991522	    -10.15287699	     -3.25096476	    -66.65085185	      6.93935966	     -1.95240434	      4.06398163	     -1.21198971	      7.27790857	     -1.48299710
      0.88933333	     -3.17340082	     -4.90569002	      3.39492301	     -0.39423890	      0.90331843	      0.36259812	     15.49356361	     10.84095327	     -3.65910519	    -22.03017951	     10.46334976	      0.54759302	      3.94758545	     15.00094190	    -10.04252621	     -3.49000637	    -66.31650413	      7.38288854	     -1.94315859	      3.96623768	     -1.33614678	      7.21169702	     -1.10358580
      0.89350000	     -3.15538679	     -4.81164513	      3.16303034	     -0.38951755	      0.90430811	      0.36314115	     14.86143662	     10.84128366	     -3.38820960	    -21.52636560	     10.49937353	      0.66129665	      3.98680468	     15.55951584	     -9.91358052	     -3.74012352	    -65.93140494	      7.78689900	     -1.98608407	      3.86964422	     -1.40462835	      7.12729017	     -0.84979805
      0.89766667	     -3.14692048	     -4.71060371	      2.90858185	     -0.38482955	      0.90523347	      0.36370434	     14.25241173	     10.83110328	     -3.09899608	    -21.04700237	     10.53282694	      0.80396251	      4.01193994	     16.11655590	     -9.78484632	     -4.01751794	    -65.50992067	      8.17770164	     -2.04977979	      3.81097331	     -1.47798573	      7.03915669	     -0.66296407
      0.90183333	     -3.09270078	     -4.61731043	      2.66254513	     -0.38009374	      0.90620674	      0.36428440	     13.56683930	     10.83095505	     -2.80838831	    -20.51362816	     10.56877196	      0.89166153	      4.05039486	     16.60671833	     -9.68158307	     -4.30625366	    -65.03298703	      8.51400653	     -2.06306981	      3.71043432	     -1.57420174	      6.95212149	     -0.32050786
      0.90600000	     -3.09487598	     -4.51015855	      2.38501723	     -0.37541147	      0.90703365	      0.36487536	     12.97679911	     10.80370965	     -2.52810197	    -20.04735847	     10.60251883	      1.04545997	      4.06670006	     17.14914189	     -9.56602075	     -4.62924370	    -64.52764915	      8.85296556	     -2.14867895	      3.67331080	     -1.59440189	      6.85454465	     -0.19041572
      0.91016667	     -3.00483621	     -4.41796003	      2.12128939	     -0.37071576	      0.90797281	      0.36549189	     12.25056492	     10.80309288	     -2.19377833	    -19.50306772	     10.64093025	      1.11433273	      4.10239167	     17.57851101	     -9.48101607	     -4.94467915	    -63.97211957	      9.13434470	     -2.17020257	      3.57661452	     -1.77627168	      6.76025802	      0.22173150
      0.91433333	     -2.97052152	     -4.33182701	      1.83286453	     -0.36604307	      0.90877030	      0.36612513	     11.60298056	     10.79991182	     -1.86310993	    -18.98942203	     10.62631455	      1.19687414	      4.15744581	     18.06181095	     -9.41270198	     -5.28990470	    -63.39503559	      9.42060626	     -2.21602987	      3.41804113	     -1.86355710	      6.68585779	      0.57414587
      0.91850000	     -2.91278194	     -4.22046585	      1.54372568	     -0.36138414	      0.90956681	      0.36674291	     10.93903426	     10.76036898	     -1.54285545	    -18.50005755	     10.69788278	      1.32075074	      4.18809996	     18.50156621	     -9.31519113	     -5.64253076	    -62.76227845	      9.64720885	     -2.30482525	      3.33608844	     -1.98756175	      6.57240308	      0.79322942
      0.92266667	     -2.86077517	     -4.13513771	      1.24564825	     -0.35672928	      0.91029638	      0.36739044	     10.27646430	     10.74591678	     -1.21636652	    -17.98907441	     10.68982488	      1.41588395	      4.23496910	     18.94409952	     -9.26391384	     -6.01403742	    -62.11185034	      9.87563771	     -2.37720162	      3.20050202	     -2.09741013	      6.48737103	      1.15860877
      0.92683333	     -2.84062488	     -4.03001612	      0.92918821	     -0.35211100	      0.91092149	      0.36804442	      9.67673711	     10.70006043	     -0.90092468	    -17.53830923	     10.74522188	      1.57547735	      4.25289034	     19.40954525	     -9.19656696	     -6.41200928	    -61.42524899	     10.05808128	     -2.50322236	      3.15530101	     -2.16716419	      6.36568858	      1.28723355
      0.93100000	     -2.74751779	     -3.92655186	      0.62939461	     -0.34745462	      0.91164392	      0.36864910	      8.97206632	     10.64885219	     -0.58400876	    -17.03502315	     10.79205182	      1.67976967	      4.28088526	     19.77124851	     -9.12181597	     -6.78621949	    -60.67242686	     10.19571223	     -2.62186786	      3.07810313	     -2.32834602	      6.29248201	      1.63284148
      0.93516667	     -2.69023589	     -3.84111596	      0.33198154	     -0.34281906	      0.91223734	      0.36927879	      8.31228410	     10.61164141	     -0.28009020	    -16.53464987	     10.82860572	      1.78563127	      4.31196527	     20.17876250	     -9.07897972	     -7.16638423	    -59.91469820	     10.32287131	     -2.74843321	      2.99337084	     -2.43803235	      6.19909240	      1.95816955
      0.93933333	     -2.63206962	     -3.76414000	      0.04357426	     -0.33820238	      0.91277547	      0.36989698	      7.65096735	     10.57564613	      0.01800424	    -16.02601583	     10.86051864	      1.89959735	      4.35431210	     20.58439236	     -9.04492655	     -7.53208331	    -59.13563467	     10.42623876	     -2.88837839	      2.88085859	     -2.56468773	      6.09583531	      2.30873550
      0.94350000	     -2.58103409	     -3.68022250	     -0.25938433	     -0.33358990	      0.91325725	      0.37051090	      7.01052301	     10.52349136	      0.30451929	    -15.54472317	     10.90094957	      2.03799318	      4.39223641	     20.97907672	     -9.00900020	     -7.92081603	    -58.31460417	     10.49590597	     -3.05447828	      2.78298524	     -2.67110384	      6.00620794	      2.57995135
      0.94766667	     -2.53501974	     -3.60292261	     -0.56434731	     -0.32899076	      0.91368253	      0.37110896	      6.38455673	     10.46924084	      0.57412200	    -15.07757596	     10.92990872	      2.19200912	      4.42774893	     21.36859217	     -8.97858539	     -8.30461166	    -57.46039441	     10.53947009	     -3.23655506	      2.69350912	     -2.77228982	      5.93758493	      2.83935587
      0.95183333	     -2.48445621	     -3.53902398	     -0.83736095	     -0.32437787	      0.91405609	      0.37166701	      5.73725081	     10.42110241	      0.82008960	    -14.57279706	     10.97953692	      2.34283215	      4.47552004	     21.75653670	     -8.95355092	     -8.64821156	    -56.58979119	     10.56797473	     -3.42141000	      2.57804853	     -2.88131172	      5.85319119	      3.15999212
      0.95600000	     -2.45349927	     -3.47386910	     -1.13995665	     -0.31978038	      0.91435557	      0.37224266	      5.13508520	     10.36420058	      1.06114506	    -14.11675770	     11.00232893	      2.52771008	      4.50784272	     22.14512743	     -8.94158791	     -9.03138779	    -55.68226666	     10.55776329	     -3.61732477	      2.50122651	     -2.96122531	      5.79789067	      3.36237602
      0.96016667	     -2.39927451	     -3.42384982	     -1.38856558	     -0.31516039	      0.91463164	      0.37274505	      4.48108220	     10.31500351	      1.26585901	    -13.60131116	     11.06419575	      2.68941803	      4.56694155	     22.51420512	     -8.91840022	     -9.33513985	    -54.75482430	     10.54158181	     -3.82945300	      2.37006374	     -3.07150036	      5.72788155	      3.70737235
      0.96433333	     -2.37376697	     -3.37518522	     -1.66978328	     -0.31055591	      0.91482114	      0.37326771	      3.88245970	     10.25979542	      1.46487487	    -13.13482481	     11.08158611	      2.89024356	      4.60304110	     22.89464134	     -8.91562307	     -9.68701081	    -53.79593051	     10.47976300	     -4.03444907	      2.29028650	     -3.14234572	      5.68559515	      3.88837149
      0.96850000	     -2.33177971	     -3.33498266	     -1.91443135	     -0.30592687	      0.91498517	      0.37372565	      3.25087205	     10.20524801	      1.62919869	    -12.63652648	     11.12743571	      3.08667420	      4.64649046	     23.25304728	     -8.89973342	     -9.98209711	    -52.80891411	     10.40677153	     -4.25643549	      2.19965225	     -3.23153467	      5.64184766	      4.13467500
      0.97266667	     -2.29997140	     -3.30381704	     -2.15500517	     -0.30129000	      0.91508004	      0.37416733	      2.63102532	     10.15462116	      1.78398027	    -12.13973394	     11.16184270	      3.29483633	      4.68976688	     23.61436449	     -8.89345931	    -10.27022437	    -51.80158864	     10.31261206	     -4.46798246	      2.11355717	     -3.31093671	      5.60614005	      4.36022298
      0.97683333	     -2.26451578	     -3.28165178	     -2.36591495	     -0.29663797	      0.91512195	      0.37456274	      1.99839861	     10.10849594	      1.90753475	    -11.62409086	     11.23060990	      3.49781525	      4.75243198	     23.96925563	     -8.87909727	    -10.51000809	    -50.77393718	     10.21258529	     -4.68486963	      1.99848213	     -3.38997806	      5.56948086	      4.62530610
      0.98100000	     -2.25433657	     -3.26365348	     -2.59693334	     -0.29198853	      0.91508912	      0.37495652	      1.40721337	     10.06090509	      2.02953498	    -11.13656638	     11.23824752	      3.72724036	      4.79639527	     24.33318519	     -8.88042410	    -10.77651813	    -49.71705006	     10.07321800	     -4.86402051	      1.91771972	     -3.43826123	      5.55932455	      4.79279305
